<?xml version="1.0" standalone="no"?>
<!DOCTYPE svg PUBLIC "-//W3C//DTD SVG 20010904//EN"
 "http://www.w3.org/TR/2001/REC-SVG-20010904/DTD/svg10.dtd">
<svg version="1.0" xmlns="http://www.w3.org/2000/svg"
 width="700.000000pt" height="700.000000pt" viewBox="0 0 700.000000 700.000000"
 preserveAspectRatio="xMidYMid meet">
<metadata>
Created by potrace 1.11, written by Peter Selinger 2001-2013
</metadata>
<g transform="translate(0.000000,700.000000) scale(0.100000,-0.100000)"
fill="#000000" stroke="none">
<path d="M4566 6325 c-29 -21 -170 -161 -496 -495 -78 -80 -334 -340 -568
-579 -235 -238 -471 -478 -524 -533 l-97 -99 -103 76 c-57 41 -112 82 -123 90
-11 7 -96 70 -190 139 -93 69 -226 167 -295 218 -69 51 -192 142 -275 203 -82
61 -211 156 -285 210 -190 139 -526 387 -584 432 -200 151 -245 158 -324 44
-240 -342 -445 -839 -527 -1276 -12 -60 -31 -186 -40 -265 -24 -203 -24 -562
-1 -745 3 -16 7 -57 11 -90 6 -51 43 -253 59 -320 78 -333 211 -671 364 -930
57 -98 146 -240 152 -245 4 -3 21 -27 39 -53 18 -27 68 -92 110 -145 265 -332
607 -624 981 -838 89 -52 333 -174 346 -174 2 0 23 -8 47 -19 76 -33 98 -41
221 -81 159 -53 166 -55 267 -80 112 -27 109 -26 284 -55 209 -33 289 -39 530
-40 228 0 365 9 530 35 39 7 82 14 97 16 242 38 614 159 877 286 207 100 496
277 601 370 8 7 31 24 50 38 19 14 42 32 51 40 8 8 51 46 93 84 99 88 220 210
288 289 29 34 66 76 81 92 67 72 83 150 40 197 -16 18 -271 212 -413 313 -30
22 -60 44 -67 50 -6 5 -36 27 -65 48 -244 177 -559 417 -547 418 120 7 571
129 714 194 17 8 57 25 90 39 330 136 710 385 962 628 64 62 82 101 69 151 -7
29 -12 34 -485 515 -212 217 -462 471 -556 567 -240 245 -899 915 -1095 1115
-193 196 -224 213 -294 165z"/>
</g>
</svg>
